<svg height="512" viewBox="0 0 511.972 511.972" width="512" xmlns="http://www.w3.org/2000/svg" fill="#4daddd"><path d="M345.756 399.662c-3.242-2.619-41.112-33.211-50.42-40.329-5.818-4.449-15.014-10.089-27.636-7.691-12.622 2.394-25.493 12.385-39.351 30.542-14.083 18.456-28.74 21.433-49.007 9.951-4.807-2.723-10.909-1.034-13.63 3.771-2.723 4.805-1.034 10.908 3.771 13.63 28.721 16.27 54.475 11.115 74.508-14.894l81.356 65.08c-9.78 10.808-24.207 20.771-42.543 26.694-32.494 10.496-99.888 15.221-186.18-71.07s-81.567-153.686-71.07-186.18c5.908-18.291 15.837-32.691 26.614-42.47l65.075 81.35c-25.932 20.022-31.062 45.749-14.812 74.437 2.722 4.805 8.823 6.494 13.63 3.772 4.806-2.722 6.495-8.824 3.772-13.63-11.479-20.264-8.502-34.919 9.953-49.003 18.158-13.857 28.148-26.729 30.542-39.351 2.395-12.624-3.243-21.818-7.692-27.636-7.118-9.308-37.713-47.183-40.329-50.42-8.255-11.082-21.62-16.037-36.71-13.593-28.787 4.66-57.192 33.608-69.076 70.396-9.161 28.358-8.666 60.35 1.433 92.516 11.97 38.132 37.045 76.472 74.527 113.954s75.822 62.557 113.954 74.527c16.888 5.302 33.728 7.957 50.019 7.957 14.738 0 29.027-2.173 42.497-6.524 36.788-11.884 65.736-40.289 70.396-69.076 2.445-15.091-2.508-28.455-13.591-36.71zM78.795 172.365c7.839-1.269 13.741.712 17.542 5.889.091.124.186.246.282.366.33.407 33.014 40.857 40.131 50.164 3.598 4.706 4.663 7.893 3.93 11.76-.61 3.213-2.719 7.901-8.465 14.2l-63.401-79.257c3.437-1.55 6.799-2.607 9.981-3.122zm178.513 207.317c6.259-5.691 10.921-7.784 14.12-8.391 3.865-.731 7.054.332 11.76 3.93 9.307 7.117 49.756 39.802 50.164 40.131.12.097.242.191.366.282 5.177 3.801 7.158 9.704 5.889 17.542-.51 3.151-1.552 6.478-3.077 9.879z"/><path d="M351.971 0c-88.224 0-159.999 71.776-159.999 160 0 28.101 7.347 55.587 21.288 79.782-3.958 14.751-7.915 29.503-11.875 44.28-2.028 7.613.11 15.458 5.721 20.987 5.531 5.451 13.578 7.544 21.019 5.473 14.687-3.936 29.371-7.875 44.056-11.815C296.379 312.651 323.87 320 351.971 320c88.225 0 160-71.776 160-160s-71.775-160-160-160zm0 300c-25.869 0-51.139-7.113-73.08-20.57a9.998 9.998 0 00-7.82-1.134c-16.059 4.309-32.118 8.617-48.179 12.921l-.128.035c-.752.211-1.296-.128-1.622-.449-.679-.669-.5-1.34-.437-1.579 4.32-16.122 8.641-32.228 12.963-48.334a10.002 10.002 0 00-1.134-7.819C219.081 211.135 211.97 185.867 211.97 160c0-77.196 62.804-140 139.999-140 77.196 0 140 62.804 140 140s-62.802 140-139.998 140z"/><path d="M401.972 100h-100c-5.523 0-10 4.477-10 10s4.477 10 10 10h100c5.523 0 10-4.477 10-10s-4.477-10-10-10zm0 50h-100c-5.523 0-10 4.477-10 10s4.477 10 10 10h100c5.523 0 10-4.477 10-10s-4.477-10-10-10zm0 50h-100c-5.523 0-10 4.477-10 10s4.477 10 10 10h100c5.523 0 10-4.477 10-10s-4.477-10-10-10zM139.405 362.559c-5.523 0-9.996 4.477-9.996 10s4.48 10 10.003 10 10-4.477 10-10-4.477-10-10-10z"/></svg>